# xmcd
# Copyright (C) 1995-1998 Ti Kan
#
# Track frame offsets:
#       150
#       16377
#       33312
#       47306
#       63122
#       84804
#       99441
#       116764
#       136663
#       150927
#       171902
#       189780
#
# Disc length: 2745 seconds
#
# Revision: 0
# Processed by: cddbd v1.5.1PL0 Copyright (c) Steve Scherf et al.
# Submitted via: CD-Transfer v1.0
#
DISCID=7b0ab70c
DTITLE=Various Artist - 
DYEAR=03
DGENRE=
TTITLE0=Pascal   She's got that light
TTITLE1=Carmen   Creep
TTITLE2=Yves   Schöni Meitschi
TTITLE3=Fatima   Walking on Sunshine
TTITLE4=Ralph   Wicked Game
TTITLE5=Anina   Mädchen
TTITLE6=Mario    I'll make love to you
TTITLE7=Olivia   Bello e impossibile
TTITLE8=Segio   I swear
TTITLE9=Luciana    Think Twice
TTITLE10=Damian   Miss california
TTITLE11=Daniela   What a Feeling
EXTD=
EXTT0=
EXTT1=
EXTT2=
EXTT3=
EXTT4=
EXTT5=
EXTT6=
EXTT7=
EXTT8=
EXTT9=
EXTT10=
EXTT11=
PLAYORDER=
